# xmcd CD database file generated by Grip 3.3.1
# 
# Track frame offsets:
#       150
#       12724
#       27832
#       44576
#       53693
#       59544
#       66284
#       76489
#       88957
#       98377
#       110611
#       121490
#       130662
#       143123
#       151937
#       161547
# 
# Disc length: 2316 seconds
# 
# Revision: 4
# Processed by: cddbd v1.5.2PL0 Copyright (c) Steve Scherf et al.
# Submitted via: Grip 3.3.1
# 
DISCID=d8090a10
DTITLE=Johnny Cash - The Best Of Johnny Cash - CD2
DYEAR=2003
DGENRE=Country
TTITLE0=I Walk The Line
TTITLE1=A Boy Named Sue
TTITLE2=Ghost Riders In The Sky
TTITLE3=Two Timin' Woman
TTITLE4=My Treasure
TTITLE5=Hey, Good Lookin'
TTITLE6=The Ways Of Woman In Love
TTITLE7=Next In Line
TTITLE8=Down The Street To 301
TTITLE9=Give My Love To Rose
TTITLE10=Fools Hall Of Fame
TTITLE11=Blue Train
TTITLE12=Long Black Well
TTITLE13=Katy Too
TTITLE14=If I Were A Carpenter
TTITLE15=Peace In The Valley
EXTD=
EXTT0=
EXTT1=
EXTT2=
EXTT3=
EXTT4=
EXTT5=
EXTT6=
EXTT7=
EXTT8=
EXTT9=
EXTT10=
EXTT11=
EXTT12=
EXTT13=
EXTT14=
EXTT15=
PLAYORDER=
